<?xml version="1.0" encoding="utf-8"?>
<!-- Generator: Adobe Illustrator 19.0.0, SVG Export Plug-In . SVG Version: 6.00 Build 0)  -->
<svg version="1.1"
	 id="svg557" xmlns:rdf="http://www.w3.org/1999/02/22-rdf-syntax-ns#" xmlns:dc="http://purl.org/dc/elements/1.1/" xmlns:cc="http://creativecommons.org/ns#" xmlns:svg="http://www.w3.org/2000/svg"
	 xmlns="http://www.w3.org/2000/svg" xmlns:xlink="http://www.w3.org/1999/xlink" x="0px" y="0px" viewBox="243 -162.2 744.1 496.1"
	 style="enable-background:new 243 -162.2 744.1 496.1;" xml:space="preserve">
<style type="text/css">
	.st0{fill:#FFFFFF;stroke:#000000;}
	.st1{fill:url(#path1948_1_);}
	.st2{fill:url(#path1950_1_);}
</style>
<rect id="rect3063" x="243" y="-162.2" width="744.1" height="496.1"/>
<path id="path3069" class="st0" d="M844.7-36.6c-15,21-31.3,38.8-49,60l-24,27c-20,19-70,56-93,71c-13,9-27,16-41,22l-18.3,8.8
	c3,3,8.6,4.6,13.6,7c3,0,13.6-5.8,16.6-7.8l32-18c6-4,12-9,19-10c-3,7-10,11-17,15l-19,11c0,0-20,11.4-22.7,13.3
	c5.5,2.2,13.7,4.6,18.9,6.7c5,0,11.8-5,15.8-7c11-6,25-15,36-23l18-12c14-11,28-23,41-36c10-9,20-18,28-29c11-13,18-28,26-43
	c9-14,12-23,17-38C843.7-23.6,846.7-31.6,844.7-36.6L844.7-36.6z"/>
<path id="path3071" class="st0" d="M385.7-41.6c-3,11,1,24,5,34c9,24,24,45,39,65c9,13,24,29,35,40l12,10l26,23c21,16,60,40,84,51
	l32,14l13,5c15,6,30,10,46,13c9,2,19,5,28,5c-3-11-9-10-18-13l-33-13c-46-19-97-38-133-74c7,0,12,6,17,10c7,5,16,11,24,16
	c22,13,72,36,97,45c10,4,27,11,37,11c8,1,19-4,25-8c-4-4-8-3-14-4l-31-9c-27-7-53-17-78-30l-14-6l-19-12l-23-15l-24-19l-41-32
	l-38-39l-19-22l-20-22L385.7-41.6L385.7-41.6z"/>
<path id="path3073" class="st0" d="M706.7,205.4c2,4,6,10,6,15c0,11-13,21-23,20c-4-1-13-6-16,0c-1,2-1,4,0,5c0,4,5,6,9,8
	c11,3,23-1,32-7c7-4,12-11,14-19l2-13c1-4,5-5,10-12c6-8,12-22,20-28c3-2,6-3,10-4c-2-3-4-5-6-8c-2-1-4-3-6-3c-3-1-7-1-10,1
	c-14,7-11,20-19,30C723.7,198.4,716.7,202.4,706.7,205.4L706.7,205.4z"/>
<path id="path3075" class="st0" d="M738.7,218.4c7,3,13,2,20,2l15,1c7,0,9-4,12-10c1-2,2-6,0-8s-6-2-9-2l-17,1c-3,0-8,0-11,1
	C743.7,206.4,739.7,213.4,738.7,218.4L738.7,218.4z"/>
<path id="path3077" class="st0" d="M792.7,232.4c-5-2-8-4-11-8c-1,1-2,1-3,2C777.7,231.4,790.7,243.4,792.7,232.4z"/>
<path id="path3079" class="st0" d="M785.7,198.4l8,5c-2,4-7,12-6,17c1,10,15,10,21,4c7-8,7-20-3-26
	C799.7,195.4,792.7,196.4,785.7,198.4z"/>
<path id="path3081" class="st0" d="M426.7,226.4l1,1c8-2,13-5,14-13C435.7,215.4,429.7,221.4,426.7,226.4z"/>
<path id="path3083" class="st0" d="M433.7,189.4c-3-2-6-3-10-3c-3,0-6,0-9,1c-10,4-11,20-3,27c4,4,14,6,18,1c4-4,3-9,1-14
	c-1-3-3-7-1-9C430.7,190.4,432.7,190.4,433.7,189.4z"/>
<path id="path3085" class="st0" d="M432.7,193.4c1,3,6,15,8,17c3,2,6,2,9,2l18-1h13c0-3,0-6-1-8c-3-8-14-12-22-12l-9,1
	C442.7,192.4,437.7,191.4,432.7,193.4z"/>
<path id="path3087" class="st0" d="M451.7,161.4c19,5,19,21,27,32c3,4,11,10,12,14c1,3,0,4,1,11c2,9,8,18,16,23c9,6,17,10,28,7
	c6-2,12-6,9-13s-14,0-21-2c-7-3-15-13-15-21l4-14c-11-4-24-13-29-24c-3-7-3-17-8-22C466.7,145.4,454.7,151.4,451.7,161.4
	L451.7,161.4z"/>
<path id="path3089" class="st0" d="M499.7,184.4c3,4,5,5,9,7c14,8,23,2,37-1l29-9c-3.8-2.6-12.4-8-16-10l-19,5L499.7,184.4z"/>
<path id="path3091" class="st0" d="M513.7,213.4c26,0,50-8,75-14c0,0,11-5.2,14.7-5.2c-3.5-2.5-17.6-7.6-19.8-9.6
	c-3,0.9-14.8,4.8-18.8,5.8l-25,7l-12,3C520.7,203.4,515.7,204.4,513.7,213.4z"/>
<linearGradient id="path1948_1_" gradientUnits="userSpaceOnUse" x1="569.3466" y1="287.0905" x2="742.5107" y2="138.1061" gradientTransform="matrix(0.5625 0 0 -0.568 203.2053 91.0949)">
	<stop  offset="0" style="stop-color:#5A9FD4"/>
	<stop  offset="1" style="stop-color:#306998"/>
</linearGradient>
<path id="path1948" class="st1" d="M615.1-77c-7.3,0-14.2,0.7-20.4,1.7c-18,3.2-21.3,9.8-21.3,22.1v16.2H616v5.4h-42.6h-16
	c-12.4,0-23.2,7.4-26.6,21.6c-3.9,16.2-4.1,26.3,0,43.3c3,12.6,10.3,21.6,22.6,21.6h14.6V35.5c0-14.1,12.2-26.5,26.6-26.5h42.5
	c11.8,0,21.3-9.8,21.3-21.6v-40.6c0-11.5-9.7-20.2-21.3-22.1C629.9-76.5,622.3-77.1,615.1-77z M592-64c4.4,0,8,3.7,8,8.1
	c0,4.5-3.6,8.1-8,8.1c-4.4,0-8-3.6-8-8.1C584-60.3,587.6-64,592-64z"/>
<linearGradient id="path1950_1_" gradientUnits="userSpaceOnUse" x1="809.4572" y1="47.9345" x2="747.6203" y2="135.4229" gradientTransform="matrix(0.5625 0 0 -0.568 203.2053 91.0949)">
	<stop  offset="0" style="stop-color:#FFD43B"/>
	<stop  offset="1" style="stop-color:#FFE873"/>
</linearGradient>
<path id="path1950" class="st2" d="M663.8-31.5v18.9c0,14.7-12.4,27-26.6,27h-42.5c-11.7,0-21.3,10-21.3,21.6v40.6
	c0,11.5,10,18.3,21.3,21.6c13.5,4,26.4,4.7,42.5,0c10.7-3.1,21.3-9.4,21.3-21.6V60.4H616v-5.4h42.5h21.3c12.4,0,17-8.6,21.3-21.6
	c4.4-13.3,4.3-26.2,0-43.3c-3.1-12.3-8.9-21.6-21.3-21.6H663.8z M639.9,71.2c4.4,0,8,3.6,8,8.1c0,4.5-3.6,8.1-8,8.1
	c-4.4,0-8-3.7-8-8.1C631.9,74.8,635.5,71.2,639.9,71.2z"/>
</svg>
